<svg xmlns="http://www.w3.org/2000/svg" width="46" height="46" viewBox="0 0 46 46">
    <g fill="none" fill-rule="evenodd">
        <path fill="#969696" fill-rule="nonzero" d="M16.432 14.814l-1.598 1.597c-2.1 2.1-.093 6.452 4.102 10.647 4.194 4.194 8.547 6.201 10.646 4.102l1.598-1.598c1.085-1.085 1.085-2.85 0-3.935l-2.024-2.023-.118-.112-.15-.121c-1.118-.848-2.679-.755-3.666.232l-.934.933-2.832-2.832.934-.932c1.085-1.085 1.085-2.85 0-3.935l-2.024-2.023c-1.085-1.085-2.85-1.085-3.934 0zm2.52 1.413l2.024 2.024c.304.304.304.803 0 1.107l-2.347 2.347 5.66 5.659 2.346-2.347c.29-.29.759-.305 1.066-.038l.067.063 1.998 2c.304.303.304.802 0 1.106l-1.598 1.598c-.934.934-4.364-.647-7.818-4.102-3.455-3.455-5.037-6.884-4.102-7.819l1.598-1.598c.304-.304.802-.304 1.106 0z"/>
        <circle cx="23" cy="23" r="22.5" stroke="#DDD"/>
    </g>
</svg>
