<svg xmlns="http://www.w3.org/2000/svg" width="100" height="102" viewBox="0 0 100 102">
    <g fill="none" fill-rule="evenodd">
        <path d="M0 0H100V102H0z"/>
        <rect width="52" height="100" x="1" y="1" fill="#FFF" stroke="#101010" stroke-width="2" rx="3"/>
        <rect width="24" height="34.72" x="15" y="13.24" fill="#FFF" stroke="#101010" stroke-width="2" rx="3"/>
        <ellipse cx="62" cy="22.44" fill="#004E73" rx="16" ry="16.32"/>
        <rect width="14" height="2.04" x="55" y="21.42" fill="#FFF" rx="1"/>
        <path fill="#FFF" d="M63 16.3v12.28c0 .552-.448 1-1 1s-1-.448-1-1V16.3c0-.552.448-1 1-1s1 .448 1 1z"/>
        <path fill="#FFF" stroke="#101010" stroke-width="2" d="M31 47.92h-8v6.2c0 .552.224 1.052.586 1.414.362.362.862.586 1.414.586h4c.552 0 1.052-.224 1.414-.586.362-.362.586-.862.586-1.414v-6.2zM27 64.718c-2.59 2.873-4 5.085-4 6.682 0 1.134.45 2.162 1.179 2.906.722.737 1.719 1.194 2.821 1.194s2.1-.457 2.821-1.194C30.551 73.562 31 72.534 31 71.4c0-1.597-1.41-3.808-4-6.682z"/>
        <rect width="52" height="51.04" x="47" y="45.88" fill="#FFF" stroke="#101010" stroke-width="2" rx="16"/>
        <path fill="#101010" d="M72 44.88H74V97.92H72z"/>
        <path fill="#101010" d="M46 70.38H100V72.42H46zM61 95.88c.4 0 .725.325.725.725 0 .077-.012.153-.036.226l-1.378 4.218c-.186.567-.715.951-1.311.951-.4 0-.725-.325-.725-.725 0-.077.012-.153.036-.226l1.378-4.218c.186-.567.715-.951 1.311-.951zM85 95.88c-.4 0-.725.325-.725.725 0 .077.012.153.036.226l1.378 4.218c.186.567.715.951 1.311.951.4 0 .725-.325.725-.725 0-.077-.012-.153-.036-.226l-1.378-4.218c-.186-.567-.715-.951-1.311-.951z"/>
    </g>
</svg>
