<svg xmlns="http://www.w3.org/2000/svg" width="100" height="100" viewBox="0 0 100 100">
    <g fill="none" fill-rule="evenodd">
        <path d="M0 0H100V100H0z"/>
        <rect width="52" height="82" x="1" y="1" fill="#FFF" stroke="#101010" stroke-width="2" rx="3"/>
        <path fill="#FFF" stroke="#101010" stroke-width="2" d="M1 11H53V73H1z"/>
        <path fill="#101010" d="M0 10H54V12H0zM0 72H54V74H0z"/>
        <path fill="#FFF" stroke="#101010" stroke-linejoin="round" stroke-width="2" d="M22 80V53.78c0-2.64 2.127-4.78 4.75-4.78s4.75 2.14 4.75 4.78V79.66v-7.952c0-2.64 2.127-4.78 4.75-4.78s4.75 2.14 4.75 4.78v7.952-7.561c0-2.64 2.127-4.78 4.75-4.78s4.75 2.14 4.75 4.78v7.56-7.17c0-2.64 2.127-4.78 4.75-4.78s4.75 2.14 4.75 4.78V99H22L10.515 86.586c-1.953-1.953-1.953-5.119 0-7.071 1.952-1.953 5.118-1.953 7.07 0L22 84v-4z"/>
        <rect width="18" height="2" x="80" y="30.657" fill="#101010" rx="1"/>
        <path stroke="#101010" stroke-linecap="round" stroke-linejoin="round" stroke-width="2" d="M88.657 27.657L96.657 27.657 96.657 35.657" transform="rotate(45 92.657 31.657)"/>
        <circle cx="60" cy="32" r="16" fill="#004E73"/>
        <text fill="#FFF" font-family="Lato-Bold, Lato" font-size="16" font-weight="bold" letter-spacing="-.5">
            <tspan x="56" y="38">S</tspan>
        </text>
        <path fill="#FFF" d="M59 37h2v2c0 .552-.448 1-1 1s-1-.448-1-1v-2zM60 24c.552 0 1 .448 1 1v2h-2v-2c0-.552.448-1 1-1z"/>
        <rect width="6" height="2" x="24" y="5" fill="#101010" rx="1"/>
    </g>
</svg>
