<svg xmlns="http://www.w3.org/2000/svg" width="100" height="100" viewBox="0 0 100 100">
    <g fill="none" fill-rule="evenodd">
        <circle cx="50" cy="50" r="50" fill="#F8F8F8"/>
        <g fill="#101010" fill-rule="nonzero">
            <path d="M3.447 1.125C4.164.41 5.254.238 6.093.651l.154.085 6.438 3.22c.656.395 1.075 1.082 1.132 1.837l.002.065.537 3.099 9.343 9.52-1.427 1.4-9.56-9.74c-.114-.116-.197-.257-.244-.412l-.028-.118-.602-3.467-.015-.171c0-.098-.04-.19-.076-.236l-.024-.025-6.438-3.22c-.113-.069-.254-.065-.362.003l-.061.049L2.54 4.86c-.097.097-.126.239-.058.406l3.189 6.388c.05.084.133.142.226.161l.243.023 3.467.602c.16.028.31.094.438.192l.091.08 9.741 9.558-1.4 1.428-9.52-9.341-3.102-.539-.061-.002c-.698-.052-1.34-.418-1.771-1.039l-.104-.16L.773 6.313C.251 5.445.35 4.347.998 3.586l.128-.139 2.321-2.322zM31.987 21.05l15.412 15.413c.663.663.7 1.715.11 2.422l-.11.12-8.393 8.394c-.663.663-1.716.7-2.422.11l-.121-.11L21.05 31.987l1.414-1.414L37.734 45.84l8.107-8.107-15.268-15.269 1.414-1.414z" transform="translate(26 26)"/>
            <path d="M38.168.574c-2.78-.085-5.51 1.04-7.49 3.16l-.215.24c-2.117 2.425-2.887 5.764-2.118 8.816L12.814 28.322c-3.257-.855-6.83.097-9.335 2.603C1.525 32.878.497 35.493.575 38.15c.055 1.956 2.38 2.86 3.768 1.472l2.16-2.16c.101-.101.238-.104.305-.037l3.366 3.367c.068.068.065.204-.036.305l-2.157 2.157c-1.378 1.38-.5 3.711 1.45 3.77 2.781.087 5.511-1.037 7.49-3.158l.216-.24c2.117-2.424 2.887-5.764 2.116-8.817l15.532-15.532c3.259.856 6.83-.096 9.336-2.602 1.953-1.953 2.982-4.568 2.905-7.225-.057-1.956-2.38-2.86-3.769-1.472l-2.16 2.16c-.101.101-.238.104-.306.037l-3.365-3.367c-.068-.068-.065-.204.036-.306l2.157-2.157c1.378-1.378.5-3.71-1.45-3.77zm-.06 2c.176.005.25.203.097.357l-2.158 2.157c-.868.871-.898 2.273-.035 3.135l3.365 3.366c.862.862 2.266.832 3.135-.038l2.16-2.158c.154-.155.35-.079.355.115.06 2.11-.758 4.191-2.32 5.753-2.125 2.125-5.196 2.847-7.889 1.94l-.588-.197-17.24 17.242.189.583c.849 2.615.207 5.61-1.72 7.672-1.584 1.698-3.758 2.593-5.966 2.525-.177-.006-.252-.204-.098-.358l2.157-2.156c.87-.87.9-2.273.036-3.135l-3.365-3.366c-.863-.862-2.267-.832-3.135.038L2.93 38.207c-.155.155-.35.079-.356-.114-.062-2.11.757-4.192 2.319-5.754 2.125-2.125 5.197-2.847 7.889-1.94l.587.197L30.61 13.354l-.189-.583c-.849-2.614-.207-5.609 1.72-7.672 1.584-1.698 3.758-2.593 5.966-2.526z" transform="translate(26 26)"/>
            <path d="M30.18 27.12c.361-.36.928-.388 1.32-.083l.095.083 9.832 9.833c.391.39.391 1.023 0 1.414-.36.36-.927.388-1.32.083l-.094-.083-9.832-9.833c-.39-.39-.39-1.023 0-1.414zM27.188 30.113c.36-.36.928-.389 1.32-.084l.095.084 9.832 9.832c.39.39.39 1.024 0 1.414-.36.36-.928.389-1.32.084l-.094-.084-9.833-9.832c-.39-.39-.39-1.024 0-1.414z" transform="translate(26 26)"/>
        </g>
    </g>
</svg>
