<svg xmlns="http://www.w3.org/2000/svg" width="100" height="100" viewBox="0 0 100 100">
    <g fill="none" fill-rule="evenodd">
        <circle cx="50" cy="50" r="50" fill="#F8F8F8"/>
        <g>
            <path d="M0 0H54V54H0z" transform="translate(23 23)"/>
            <path fill="#101010" fill-rule="nonzero" d="M27 2c11.463 0 19.815 6.893 19.997 16.1l.003.307V23h-2v-4.593C45 10.237 37.556 4 27 4 16.99 4 9.186 10.749 9.003 18.143L9 18.407V23H7v-4.593C7 9.744 15.82 2 27 2zM36.226 49c6.212-1.438 10.615-5.613 10.77-10.538l.004-.27v-5.166h-2v5.167c0 3.906-3.575 7.44-8.897 8.78l-.329.079.452 1.948z" transform="translate(23 23)"/>
            <path fill="#101010" fill-rule="nonzero" d="M34.5 46h-5c-1.38 0-2.5 1.12-2.5 2.5s1.12 2.5 2.5 2.5h5c1.38 0 2.5-1.12 2.5-2.5S35.88 46 34.5 46zm-5 2h5c.276 0 .5.224.5.5s-.224.5-.5.5h-5c-.276 0-.5-.224-.5-.5s.224-.5.5-.5zM9 36V19H8c-4.33 0-8 3.874-8 8.5C0 32.171 3.43 36 7.72 36H9zM7 21.097v12.851l-.101-.015C4.147 33.481 2 30.792 2 27.5c0-3.151 2.212-5.836 4.951-6.394L7 21.097zM45 36V19h1c4.33 0 8 3.874 8 8.5 0 4.671-3.43 8.5-7.72 8.5H45zm2-14.903v12.851l.101-.015C49.853 33.481 52 30.792 52 27.5c0-3.151-2.212-5.836-4.951-6.394L47 21.097zM20.5 26c.828 0 1.5.672 1.5 1.5s-.672 1.5-1.5 1.5-1.5-.672-1.5-1.5.672-1.5 1.5-1.5zM27.5 26c.828 0 1.5.672 1.5 1.5s-.672 1.5-1.5 1.5-1.5-.672-1.5-1.5.672-1.5 1.5-1.5zM34.5 26c.828 0 1.5.672 1.5 1.5s-.672 1.5-1.5 1.5-1.5-.672-1.5-1.5.672-1.5 1.5-1.5z" transform="translate(23 23)"/>
        </g>
    </g>
</svg>
