<svg xmlns="http://www.w3.org/2000/svg" xmlns:xlink="http://www.w3.org/1999/xlink" width="123" height="29" viewBox="0 0 123 29">
    <defs>
        <path id="prefix__a" d="M0.857 0.019L10.941 0.019 10.941 28 0.857 28z"/>
        <path id="prefix__c" d="M0.457 0.714L24.583 0.714 24.583 24 0.457 24z"/>
        <path id="prefix__e" d="M0.439 0.019L10.524 0.019 10.524 28 0.439 28z"/>
    </defs>
    <g fill="none" fill-rule="evenodd">
        <path fill="#004B70" d="M24.907 26.063l-4.94-16.229-4.939 16.23c-.298.98-1.229 1.653-2.287 1.653H9.304c-1.034 0-1.95-.645-2.268-1.597L0 5.024h4.074c1.045 0 1.966.657 2.277 1.621l4.852 15.084 4.523-15.043c.296-.984 1.23-1.662 2.29-1.662h3.904c1.06 0 1.993.678 2.29 1.662l4.523 15.043 4.852-15.084c.31-.964 1.233-1.62 2.276-1.62h4.074L32.901 26.12c-.319.952-1.235 1.597-2.27 1.597h-3.436c-1.058 0-1.989-.673-2.288-1.654"/>
        <g transform="translate(71.38 .014)">
            <mask id="prefix__b" fill="#fff">
                <use xlink:href="#prefix__a"/>
            </mask>
            <path fill="#004B70" d="M9.84 28c-2.606 0-4.569-.591-5.958-1.665C1.818 24.757.857 22.488.857 19.192V2.324C.857 1.05 1.925.019 3.242.019h3.073v18.838c0 1.737.352 2.965 1.106 3.764.444.452 1.073.713 1.716.86 1.071.247 1.804 1.205 1.804 2.269v2.216c-.369.023-.738.034-1.101.034" mask="url(#prefix__b)"/>
        </g>
        <g transform="translate(98.276 4.014)">
            <mask id="prefix__d" fill="#fff">
                <use xlink:href="#prefix__c"/>
            </mask>
            <path fill="#004B70" d="M11.789 24c-4.317 0-9.02-.992-11.332-1.941l.685-2.028c.404-1.201 1.73-1.85 2.98-1.484 2.658.775 5.089 1.118 7.785 1.118 3.7 0 7.648-.227 7.648-2.926 0-2.4-3.424-2.51-6.737-2.62-.475-.014-.947-.03-1.406-.052-5.453-.28-10.35-.975-10.35-6.321 0-5.812 6.331-7.032 11.643-7.032 3.43 0 6.609.408 10.288 1.322l-.577 1.89c-.346 1.139-1.535 1.843-2.74 1.61-2.457-.475-4.716-.715-6.736-.715-4.698 0-6.614.768-6.614 2.65 0 1.892 3.065 2.044 6.029 2.19 5.732.285 12.23.608 12.23 6.62 0 6.407-5.116 7.719-12.796 7.719" mask="url(#prefix__d)"/>
        </g>
        <path fill="#004B70" d="M55.032 8.835c3.98 0 6.417 1.497 7.099 5.639H47.316c.644-3.77 3.696-5.64 7.716-5.64m12.42 6.023c0-2.343-.955-4.688-2.687-6.601-2.061-2.275-5.517-3.527-9.733-3.527-8.428 0-13.663 4.628-13.663 12.079 0 7.227 4.893 11.206 13.781 11.206 2.172 0 4.338-.182 6.433-.543 1.87-.326 3.531-.754 5.435-1.294l-.562-1.89c-.35-1.176-1.587-1.885-2.82-1.611-2.03.453-5.076 1.003-7.876 1.003-4.14 0-8.023-1.226-8.466-5.301h19.95c.156-1.28.207-2.15.207-3.521"/>
        <g transform="translate(84.828 .014)">
            <mask id="prefix__f" fill="#fff">
                <use xlink:href="#prefix__e"/>
            </mask>
            <path fill="#004B70" d="M9.42 28c-2.605 0-4.567-.591-5.957-1.665C1.4 24.757.44 22.488.44 19.192V2.324C.439 1.05 1.506.019 2.823.019h3.073v18.838c0 1.737.352 2.965 1.107 3.764.443.452 1.072.713 1.716.86 1.07.247 1.805 1.205 1.805 2.269v2.216c-.37.023-.74.034-1.103.034" mask="url(#prefix__f)"/>
        </g>
    </g>
</svg>
