<svg xmlns="http://www.w3.org/2000/svg" width="100" height="100" viewBox="0 0 100 100">
    <g fill="none" fill-rule="evenodd">
        <circle cx="50" cy="50" r="50" fill="#F8F8F8"/>
        <g>
            <path d="M0 0H54V54H0z" opacity=".54" transform="translate(23 23)"/>
            <path fill="#000" fill-rule="nonzero" d="M50 7H4c-1.657 0-3 1.343-3 3v30c0 1.657 1.343 3 3 3h17.532l3.932 4.718c.077.093.163.179.256.256.848.708 2.11.593 2.816-.256L32.468 43H50c1.657 0 3-1.343 3-3V10c0-1.657-1.343-3-3-3zM4 9h46c.552 0 1 .448 1 1v30c0 .552-.448 1-1 1H32.468c-.593 0-1.156.264-1.536.72L27 46.438l-3.932-4.718c-.38-.456-.943-.72-1.536-.72H4c-.552 0-1-.448-1-1V10c0-.552.448-1 1-1z" transform="translate(23 23)"/>
            <path fill="#101010" fill-rule="nonzero" d="M21.304 30.816V18.288H19.4c-.032 1.504-.672 1.952-2.24 1.984v1.504h2.112v9.04h2.032zm7.216-8.304v-2.4h-2.736v2.4h2.736zm0 6.352v-2.4h-2.736v2.4h2.736zm7.344 1.952V18.288H33.96c-.032 1.504-.672 1.952-2.24 1.984v1.504h2.112v9.04h2.032z" transform="translate(23 23)"/>
        </g>
    </g>
</svg>
